# xmcd CD database file
#
# Track frame offsets:
#	150
#	10826
#	28383
#	37888
#	52928
#	64624
#	75016
#	90766
#	103353
#	116967
#	129641
#	150738
#	164278
#	176040
#	191966
#	203262
#	217176
#	230733
#	251421
#
# Disc length: 3682 seconds
#
# Revision: 0
# Processed by: cddbd v1.5.2PL0 Copyright (c) Steve Scherf et al.
# Submitted via: CDex 1.51
#
DISCID=fb0e6013
DTITLE=Straight Bourbon - Tonight Only - Live
DYEAR=2004
DGENRE=Blues
TTITLE0=Hold On I´m Coming
TTITLE1=Flip, Flop and Fly
TTITLE2=Mr. Pitiful
TTITLE3=Soulman
TTITLE4=Stagger Lee
TTITLE5=Looking For A Fox
TTITLE6=I Feel Good
TTITLE7=Proud Mary
TTITLE8=See Saw
TTITLE9=Respect
TTITLE10=Funky Nassau
TTITLE11=Baby I Love You
TTITLE12=Since You´ve Been Gone
TTITLE13=Expressway To Your Heart
TTITLE14=I Ain´t Got You
TTITLE15=Shake A Tail Feather
TTITLE16=Everybody Needs Somebody
TTITLE17=New Orleans
TTITLE18=Jailhouse Rock
EXTD=YEAR: 2004
EXTT0=
EXTT1=
EXTT2=
EXTT3=
EXTT4=
EXTT5=
EXTT6=
EXTT7=
EXTT8=
EXTT9=
EXTT10=
EXTT11=
EXTT12=
EXTT13=
EXTT14=
EXTT15=
EXTT16=
EXTT17=
EXTT18=
PLAYORDER=
